<?xml version="1.0" standalone="no"?>
<!DOCTYPE svg PUBLIC "-//W3C//DTD SVG 20010904//EN"
 "http://www.w3.org/TR/2001/REC-SVG-20010904/DTD/svg10.dtd">
<svg version="1.0" xmlns="http://www.w3.org/2000/svg"
 width="128.000000pt" height="128.000000pt" viewBox="0 0 128.000000 128.000000"
 preserveAspectRatio="xMidYMid meet">

<g transform="translate(0.000000,128.000000) scale(0.100000,-0.100000)"
fill="#000000" stroke="none">
<path d="M1050 941 c-44 -9 -80 -28 -80 -43 0 -6 8 -4 18 5 10 10 23 17 28 17
4 0 -3 -8 -16 -17 -14 -10 -29 -18 -35 -18 -17 0 -23 -48 -23 -175 0 -129 6
-171 23 -171 6 0 17 -7 26 -15 9 -8 30 -19 45 -24 23 -6 25 -8 8 -9 -12 -1
-33 8 -48 20 -14 11 -26 16 -26 10 0 -22 65 -44 127 -43 111 1 153 43 153 152
l0 60 -70 0 -70 0 0 -55 c0 -42 -3 -55 -15 -55 -13 0 -15 21 -15 130 0 109 2
130 15 130 12 0 15 -13 15 -57 l0 -58 70 3 70 4 0 59 c0 70 -19 113 -58 132
-36 19 -98 26 -142 18z m13 -18 c-7 -2 -19 -2 -25 0 -7 3 -2 5 12 5 14 0 19
-2 13 -5z m117 -3 c11 -8 7 -9 -15 -4 -37 8 -45 14 -19 14 10 0 26 -5 34 -10z
m50 -54 c0 -12 -5 -7 -19 24 -11 24 -11 24 3 6 9 -11 16 -24 16 -30z m7 -98
c-2 -18 -4 -6 -4 27 0 33 2 48 4 33 2 -15 2 -42 0 -60z m-280 -120 c-2 -35 -3
-7 -3 62 0 69 1 97 3 63 2 -35 2 -91 0 -125z m110 0 c-2 -35 -3 -7 -3 62 0 69
1 97 3 63 2 -35 2 -91 0 -125z m60 115 c-2 -16 -4 -5 -4 22 0 28 2 40 4 28 2
-13 2 -35 0 -50z m111 -140 l-2 -58 -3 53 -4 52 -49 0 -49 0 -4 -42 -4 -43 -1
48 -2 47 60 0 60 0 -2 -57z m-8 -71 c0 -5 -7 -17 -15 -28 -14 -18 -14 -17 -4
9 12 27 19 34 19 19z m-50 -52 c-8 -5 -28 -9 -45 -9 -30 2 -30 2 5 9 51 11 57
11 40 0z"/>
<path d="M20 890 c0 -47 2 -50 25 -50 l25 0 0 -180 0 -180 70 0 70 0 0 180 0
180 25 0 c23 0 25 3 25 50 l0 50 -120 0 -120 0 0 -50z m128 33 l-108 -4 0 -29
c0 -19 6 -30 18 -33 13 -4 11 -5 -5 -6 -20 -1 -23 4 -23 39 l0 40 113 -2 112
-2 -107 -3z m99 -69 c-3 -3 -12 -4 -19 -1 -8 3 -5 6 6 6 11 1 17 -2 13 -5z
m-107 -354 l50 0 3 173 3 172 2 -177 2 -178 -60 0 -60 0 2 178 2 177 3 -172 3
-173 50 0z"/>
<path d="M290 711 c0 -127 3 -231 8 -231 4 0 6 101 4 225 l-3 225 78 -2 78 -2
-72 -3 -73 -4 0 -209 c0 -130 4 -210 10 -210 5 0 17 11 26 25 14 21 22 25 45
20 29 -7 29 -6 29 44 0 28 4 51 9 51 12 0 21 -25 21 -56 0 -13 6 -33 12 -44
10 -16 10 -24 0 -40 -12 -19 -10 -20 53 -20 l65 0 -5 28 c-3 15 -11 59 -19 99
-8 45 -9 77 -3 85 6 9 7 7 3 -7 -6 -20 -6 -20 9 -1 18 23 21 147 5 193 -15 43
-50 55 -172 61 l-108 5 0 -232z m227 203 c-3 -3 -12 -4 -19 -1 -8 3 -5 6 6 6
11 1 17 -2 13 -5z m42 -38 c-3 -3 -11 5 -18 17 -13 21 -12 21 5 5 10 -10 16
-20 13 -22z m8 -128 c-2 -24 -4 -7 -4 37 0 44 2 63 4 43 2 -21 2 -57 0 -80z
m-160 -5 c-2 -21 -4 -4 -4 37 0 41 2 58 4 38 2 -21 2 -55 0 -75z m41 35 c-2
-46 -7 -73 -15 -76 -10 -3 -13 16 -13 72 0 62 3 76 15 76 13 0 15 -12 13 -72z
m19 -35 c-2 -21 -4 -6 -4 32 0 39 2 55 4 38 2 -18 2 -50 0 -70z m-60 -175 c-2
-13 -4 -3 -4 22 0 25 2 35 4 23 2 -13 2 -33 0 -45z m140 15 c-3 -10 -5 -4 -5
12 0 17 2 24 5 18 2 -7 2 -21 0 -30z m-66 -37 c5 -6 9 -18 9 -27 0 -14 10 -19
43 -22 41 -3 41 -4 -9 -5 -49 -2 -51 -1 -47 22 3 13 0 27 -6 30 -6 4 -10 17
-10 29 1 20 2 20 6 2 3 -11 9 -24 14 -29z m-101 17 c-8 -3 -26 -17 -39 -31
-13 -15 -20 -20 -16 -12 15 29 38 50 54 49 14 0 14 -1 1 -6z m177 -40 c-3 -10
-5 -4 -5 12 0 17 2 24 5 18 2 -7 2 -21 0 -30z"/>
<path d="M620 710 l0 -230 49 0 c48 0 48 1 65 43 9 23 16 48 16 54 0 6 23 14
52 18 34 5 59 15 75 31 21 21 23 31 23 137 0 95 -3 119 -18 137 -21 27 -79 39
-184 40 l-78 0 0 -230z m88 213 l-68 -4 0 -209 0 -210 34 0 c19 0 37 5 39 10
3 6 4 5 3 -2 -1 -8 -21 -14 -44 -16 l-42 -3 0 220 0 221 73 -2 72 -2 -67 -3z
m139 -9 c-3 -3 -12 -4 -19 -1 -8 3 -5 6 6 6 11 1 17 -2 13 -5z m40 -56 c-3 -8
-6 -5 -6 6 -1 11 2 17 5 13 3 -3 4 -12 1 -19z m-112 -98 c0 -58 -4 -85 -12
-87 -10 -4 -13 18 -13 87 0 69 3 91 13 88 8 -3 12 -30 12 -88z m22 -42 c-2
-24 -4 -5 -4 42 0 47 2 66 4 43 2 -24 2 -62 0 -85z m90 -60 c-3 -8 -6 -5 -6 6
-1 11 2 17 5 13 3 -3 4 -12 1 -19z m-40 -44 c-3 -3 -12 -4 -19 -1 -8 3 -5 6 6
6 11 1 17 -2 13 -5z"/>
<path d="M744 488 c-14 -46 -28 -84 -29 -86 -7 -8 -34 12 -38 29 -4 14 -14 19
-36 19 -17 0 -34 1 -37 3 -4 1 -13 -16 -21 -38 -7 -22 -22 -49 -33 -60 -20
-19 -20 -19 -40 1 -20 19 -20 20 11 57 35 43 28 49 -12 11 l-28 -27 -7 27 c-3
14 -10 26 -15 26 -12 0 -11 -13 1 -46 8 -19 7 -30 -1 -40 -7 -8 -14 -12 -17
-10 -2 3 -21 -6 -41 -19 -50 -34 -71 -33 -71 5 0 26 6 33 45 52 24 12 42 25
39 30 -3 4 -19 1 -35 -8 -17 -8 -32 -14 -34 -12 -2 2 4 22 15 45 14 31 26 44
54 53 20 6 36 16 36 21 0 11 -3 11 -34 -1 -16 -6 -27 -6 -31 1 -9 13 -48 -38
-51 -65 -1 -11 -7 -46 -15 -77 -7 -31 -10 -63 -6 -72 9 -23 58 -22 90 3 18 15
27 17 30 8 4 -9 12 -5 25 12 20 24 21 24 41 6 12 -11 27 -16 37 -12 13 5 15 2
10 -20 -16 -64 -19 -87 -9 -81 6 4 18 35 28 69 10 35 20 57 22 51 9 -25 51
-14 76 19 22 27 28 30 41 19 8 -7 18 -21 21 -32 8 -23 42 -25 72 -4 19 13 22
13 27 0 8 -21 39 -19 69 5 33 26 45 25 49 -2 3 -21 5 -20 22 12 27 52 46 70
73 70 12 0 23 5 23 11 0 7 -14 10 -35 7 -19 -2 -36 1 -38 7 -2 5 -11 -7 -20
-27 -17 -39 -47 -52 -47 -20 0 11 -9 27 -19 36 -26 24 -57 13 -77 -27 -23 -45
-44 -67 -66 -67 -26 0 -24 54 7 142 29 82 28 78 16 78 -5 0 -22 -37 -37 -82z
m-84 -69 c0 -5 -8 -12 -17 -16 -10 -3 -26 -13 -35 -21 -28 -24 -22 5 7 34 24
24 45 25 45 3z m217 -56 c-27 -35 -58 1 -38 44 l12 26 18 -29 c13 -20 15 -33
8 -41z m23 51 c0 -8 -4 -12 -10 -9 -5 3 -10 10 -10 16 0 5 5 9 10 9 6 0 10 -7
10 -16z m-255 -44 c-10 -11 -23 -20 -28 -20 -6 0 -2 9 8 20 10 11 23 20 28 20
6 0 2 -9 -8 -20z"/>
<path d="M1090 440 c-15 -15 -20 -31 -18 -58 3 -36 4 -37 43 -37 22 0 43 -3
46 -8 4 -5 16 12 29 38 17 35 29 47 51 52 44 9 48 26 5 21 -20 -2 -36 0 -36 4
0 18 -18 6 -24 -15 -9 -39 -45 -77 -72 -77 -33 0 -30 22 7 42 19 12 29 24 27
35 -5 26 -34 27 -58 3z m38 -12 c-3 -7 -13 -15 -24 -17 -16 -3 -17 -1 -5 13
16 19 34 21 29 4z"/>
</g>
</svg>
